<mxfile host="app.diagrams.net" modified="2022-11-11T00:43:08.628Z" agent="5.0 (Windows NT 10.0; Win64; x64) AppleWebKit/537.36 (KHTML, like Gecko) Chrome/107.0.0.0 Safari/537.36" etag="GAxLXcEv4S47bgx5uGYx" version="20.5.3" type="github">
  <diagram id="W8CDuQxTGTZ4ej3YejX5" name="Page-1">
    <mxGraphModel dx="782" dy="448" grid="1" gridSize="10" guides="1" tooltips="1" connect="1" arrows="1" fold="1" page="1" pageScale="1" pageWidth="850" pageHeight="1100" math="1" shadow="0">
      <root>
        <mxCell id="0" />
        <mxCell id="1" parent="0" />
        <mxCell id="PnS1yGOj6jQM3zGKcHUd-1" value="" style="rounded=0;whiteSpace=wrap;html=1;fontFamily=Times New Roman;fillColor=#f5f5f5;strokeColor=#666666;fontColor=#333333;" vertex="1" parent="1">
          <mxGeometry x="163.13" y="590" width="203.75" height="102" as="geometry" />
        </mxCell>
        <mxCell id="PnS1yGOj6jQM3zGKcHUd-2" value="" style="rounded=0;whiteSpace=wrap;html=1;fontFamily=Times New Roman;fontSize=13;" vertex="1" parent="1">
          <mxGeometry x="166.13" y="175" width="196.87" height="50" as="geometry" />
        </mxCell>
        <mxCell id="PnS1yGOj6jQM3zGKcHUd-3" value="" style="rounded=0;whiteSpace=wrap;html=1;fontFamily=Times New Roman;fillColor=#f5f5f5;strokeColor=#666666;fontColor=#333333;" vertex="1" parent="1">
          <mxGeometry x="163.13" y="230" width="203.75" height="250" as="geometry" />
        </mxCell>
        <mxCell id="PnS1yGOj6jQM3zGKcHUd-4" style="edgeStyle=orthogonalEdgeStyle;rounded=0;orthogonalLoop=1;jettySize=auto;html=1;exitX=0.5;exitY=1;exitDx=0;exitDy=0;entryX=0.5;entryY=0;entryDx=0;entryDy=0;fontFamily=Times New Roman;" edge="1" parent="1" source="PnS1yGOj6jQM3zGKcHUd-5" target="PnS1yGOj6jQM3zGKcHUd-9">
          <mxGeometry relative="1" as="geometry" />
        </mxCell>
        <mxCell id="PnS1yGOj6jQM3zGKcHUd-5" value="Observation Times (MJD)" style="rounded=0;whiteSpace=wrap;html=1;fontFamily=Times New Roman;" vertex="1" parent="1">
          <mxGeometry x="170" y="180" width="90" height="40" as="geometry" />
        </mxCell>
        <mxCell id="PnS1yGOj6jQM3zGKcHUd-6" style="edgeStyle=orthogonalEdgeStyle;rounded=0;orthogonalLoop=1;jettySize=auto;html=1;exitX=0.5;exitY=1;exitDx=0;exitDy=0;entryX=0.5;entryY=0;entryDx=0;entryDy=0;fontFamily=Times New Roman;" edge="1" parent="1" source="PnS1yGOj6jQM3zGKcHUd-7" target="PnS1yGOj6jQM3zGKcHUd-11">
          <mxGeometry relative="1" as="geometry" />
        </mxCell>
        <mxCell id="PnS1yGOj6jQM3zGKcHUd-7" value="Magntiudes" style="rounded=0;whiteSpace=wrap;html=1;fontFamily=Times New Roman;" vertex="1" parent="1">
          <mxGeometry x="270" y="180" width="90" height="40" as="geometry" />
        </mxCell>
        <mxCell id="PnS1yGOj6jQM3zGKcHUd-8" style="edgeStyle=orthogonalEdgeStyle;rounded=0;orthogonalLoop=1;jettySize=auto;html=1;exitX=0.5;exitY=1;exitDx=0;exitDy=0;entryX=0.5;entryY=0;entryDx=0;entryDy=0;fontFamily=Times New Roman;" edge="1" parent="1" source="PnS1yGOj6jQM3zGKcHUd-9" target="PnS1yGOj6jQM3zGKcHUd-13">
          <mxGeometry relative="1" as="geometry" />
        </mxCell>
        <mxCell id="PnS1yGOj6jQM3zGKcHUd-9" value="Normalize" style="rounded=1;whiteSpace=wrap;html=1;fontFamily=Times New Roman;" vertex="1" parent="1">
          <mxGeometry x="170" y="250" width="90" height="20" as="geometry" />
        </mxCell>
        <mxCell id="PnS1yGOj6jQM3zGKcHUd-10" style="edgeStyle=orthogonalEdgeStyle;rounded=0;orthogonalLoop=1;jettySize=auto;html=1;exitX=0.5;exitY=1;exitDx=0;exitDy=0;entryX=0.5;entryY=0;entryDx=0;entryDy=0;fontFamily=Times New Roman;" edge="1" parent="1" source="PnS1yGOj6jQM3zGKcHUd-11" target="PnS1yGOj6jQM3zGKcHUd-15">
          <mxGeometry relative="1" as="geometry" />
        </mxCell>
        <mxCell id="PnS1yGOj6jQM3zGKcHUd-11" value="Normalize" style="rounded=1;whiteSpace=wrap;html=1;fontFamily=Times New Roman;" vertex="1" parent="1">
          <mxGeometry x="270" y="250" width="90" height="20" as="geometry" />
        </mxCell>
        <mxCell id="PnS1yGOj6jQM3zGKcHUd-12" style="edgeStyle=orthogonalEdgeStyle;rounded=0;orthogonalLoop=1;jettySize=auto;html=1;exitX=0.5;exitY=1;exitDx=0;exitDy=0;entryX=0.5;entryY=0;entryDx=0;entryDy=0;fontFamily=Times New Roman;" edge="1" parent="1" source="PnS1yGOj6jQM3zGKcHUd-13" target="PnS1yGOj6jQM3zGKcHUd-17">
          <mxGeometry relative="1" as="geometry">
            <Array as="points">
              <mxPoint x="215" y="340" />
              <mxPoint x="265" y="340" />
            </Array>
          </mxGeometry>
        </mxCell>
        <mxCell id="PnS1yGOj6jQM3zGKcHUd-13" value="Positional Embedding" style="rounded=1;whiteSpace=wrap;html=1;fontFamily=Times New Roman;" vertex="1" parent="1">
          <mxGeometry x="170" y="290" width="90" height="40" as="geometry" />
        </mxCell>
        <mxCell id="PnS1yGOj6jQM3zGKcHUd-14" style="edgeStyle=orthogonalEdgeStyle;rounded=0;orthogonalLoop=1;jettySize=auto;html=1;exitX=0.5;exitY=1;exitDx=0;exitDy=0;entryX=0.5;entryY=0;entryDx=0;entryDy=0;fontFamily=Times New Roman;" edge="1" parent="1" source="PnS1yGOj6jQM3zGKcHUd-15" target="PnS1yGOj6jQM3zGKcHUd-17">
          <mxGeometry relative="1" as="geometry">
            <Array as="points">
              <mxPoint x="315" y="340" />
              <mxPoint x="265" y="340" />
            </Array>
          </mxGeometry>
        </mxCell>
        <mxCell id="PnS1yGOj6jQM3zGKcHUd-15" value="Feed Forward" style="rounded=1;whiteSpace=wrap;html=1;fontFamily=Times New Roman;" vertex="1" parent="1">
          <mxGeometry x="270" y="290" width="90" height="40" as="geometry" />
        </mxCell>
        <mxCell id="PnS1yGOj6jQM3zGKcHUd-16" style="edgeStyle=orthogonalEdgeStyle;rounded=0;orthogonalLoop=1;jettySize=auto;html=1;exitX=0.5;exitY=1;exitDx=0;exitDy=0;entryX=0.5;entryY=0;entryDx=0;entryDy=0;fontFamily=Times New Roman;" edge="1" parent="1" source="PnS1yGOj6jQM3zGKcHUd-17" target="PnS1yGOj6jQM3zGKcHUd-19">
          <mxGeometry relative="1" as="geometry" />
        </mxCell>
        <mxCell id="PnS1yGOj6jQM3zGKcHUd-17" value="" style="shape=orEllipse;perimeter=ellipsePerimeter;whiteSpace=wrap;html=1;backgroundOutline=1;fontFamily=Times New Roman;fontStyle=0" vertex="1" parent="1">
          <mxGeometry x="255.01" y="355" width="20" height="20" as="geometry" />
        </mxCell>
        <mxCell id="PnS1yGOj6jQM3zGKcHUd-18" style="edgeStyle=orthogonalEdgeStyle;rounded=0;orthogonalLoop=1;jettySize=auto;html=1;exitX=0.5;exitY=1;exitDx=0;exitDy=0;entryX=0.5;entryY=0;entryDx=0;entryDy=0;fontFamily=Times New Roman;" edge="1" parent="1" source="PnS1yGOj6jQM3zGKcHUd-19" target="PnS1yGOj6jQM3zGKcHUd-21">
          <mxGeometry relative="1" as="geometry" />
        </mxCell>
        <mxCell id="PnS1yGOj6jQM3zGKcHUd-50" style="edgeStyle=orthogonalEdgeStyle;rounded=0;orthogonalLoop=1;jettySize=auto;html=1;exitX=0;exitY=0.5;exitDx=0;exitDy=0;entryX=0;entryY=0.5;entryDx=0;entryDy=0;" edge="1" parent="1" source="PnS1yGOj6jQM3zGKcHUd-19" target="PnS1yGOj6jQM3zGKcHUd-51">
          <mxGeometry relative="1" as="geometry">
            <mxPoint x="255.01" y="465" as="targetPoint" />
          </mxGeometry>
        </mxCell>
        <mxCell id="PnS1yGOj6jQM3zGKcHUd-19" value="Self-Attention Block" style="rounded=1;whiteSpace=wrap;html=1;fontFamily=Times New Roman;" vertex="1" parent="1">
          <mxGeometry x="195" y="390" width="140" height="20" as="geometry" />
        </mxCell>
        <mxCell id="PnS1yGOj6jQM3zGKcHUd-20" style="edgeStyle=orthogonalEdgeStyle;rounded=0;orthogonalLoop=1;jettySize=auto;html=1;exitX=0.5;exitY=1;exitDx=0;exitDy=0;entryX=0.5;entryY=0;entryDx=0;entryDy=0;fontFamily=Times New Roman;startArrow=none;" edge="1" parent="1" target="PnS1yGOj6jQM3zGKcHUd-23">
          <mxGeometry relative="1" as="geometry">
            <mxPoint x="265.01" y="475" as="sourcePoint" />
          </mxGeometry>
        </mxCell>
        <mxCell id="PnS1yGOj6jQM3zGKcHUd-21" value="Self-Attention Block" style="rounded=1;whiteSpace=wrap;html=1;fontFamily=Times New Roman;" vertex="1" parent="1">
          <mxGeometry x="195" y="425" width="140" height="20" as="geometry" />
        </mxCell>
        <mxCell id="PnS1yGOj6jQM3zGKcHUd-22" style="edgeStyle=orthogonalEdgeStyle;rounded=0;orthogonalLoop=1;jettySize=auto;html=1;exitX=0.5;exitY=1;exitDx=0;exitDy=0;entryX=0.5;entryY=0;entryDx=0;entryDy=0;" edge="1" parent="1" target="PnS1yGOj6jQM3zGKcHUd-41">
          <mxGeometry relative="1" as="geometry">
            <mxPoint x="264.55999999999995" y="515" as="sourcePoint" />
          </mxGeometry>
        </mxCell>
        <mxCell id="PnS1yGOj6jQM3zGKcHUd-23" value="Representation" style="rounded=1;whiteSpace=wrap;html=1;fontFamily=Times New Roman;strokeWidth=2;" vertex="1" parent="1">
          <mxGeometry x="194.56" y="495" width="140" height="20" as="geometry" />
        </mxCell>
        <mxCell id="PnS1yGOj6jQM3zGKcHUd-24" style="edgeStyle=orthogonalEdgeStyle;rounded=0;orthogonalLoop=1;jettySize=auto;html=1;exitX=0.5;exitY=1;exitDx=0;exitDy=0;entryX=0.5;entryY=0;entryDx=0;entryDy=0;" edge="1" parent="1" source="PnS1yGOj6jQM3zGKcHUd-25" target="PnS1yGOj6jQM3zGKcHUd-32">
          <mxGeometry relative="1" as="geometry" />
        </mxCell>
        <mxCell id="PnS1yGOj6jQM3zGKcHUd-25" value="Feed Forward" style="rounded=1;whiteSpace=wrap;html=1;fontFamily=Times New Roman;" vertex="1" parent="1">
          <mxGeometry x="273" y="600" width="75" height="20" as="geometry" />
        </mxCell>
        <mxCell id="PnS1yGOj6jQM3zGKcHUd-26" value="Encoder" style="text;html=1;strokeColor=none;fillColor=none;align=center;verticalAlign=middle;whiteSpace=wrap;rounded=0;rotation=-90;fontFamily=Times New Roman;fontSize=13;fontStyle=1" vertex="1" parent="1">
          <mxGeometry x="110" y="335" width="60" height="30" as="geometry" />
        </mxCell>
        <mxCell id="PnS1yGOj6jQM3zGKcHUd-27" value="Decoder" style="text;html=1;strokeColor=none;fillColor=none;align=center;verticalAlign=middle;whiteSpace=wrap;rounded=0;rotation=-90;fontFamily=Times New Roman;fontSize=13;fontStyle=1" vertex="1" parent="1">
          <mxGeometry x="113.13" y="631" width="60" height="30" as="geometry" />
        </mxCell>
        <mxCell id="PnS1yGOj6jQM3zGKcHUd-28" value="$$(200+3)\times 256$$" style="text;html=1;strokeColor=none;fillColor=none;align=center;verticalAlign=middle;whiteSpace=wrap;rounded=0;fontFamily=Times New Roman;fontSize=11;rotation=0;fontStyle=0" vertex="1" parent="1">
          <mxGeometry x="381" y="295" width="65" height="30" as="geometry" />
        </mxCell>
        <mxCell id="PnS1yGOj6jQM3zGKcHUd-29" value="$$(200+3)\times 64\times4$$" style="text;html=1;strokeColor=none;fillColor=none;align=center;verticalAlign=middle;whiteSpace=wrap;rounded=0;fontFamily=Times New Roman;fontSize=11;rotation=0;fontStyle=0" vertex="1" parent="1">
          <mxGeometry x="390" y="385" width="60" height="30" as="geometry" />
        </mxCell>
        <mxCell id="PnS1yGOj6jQM3zGKcHUd-30" value="$$(200+3)\times 256$$" style="text;html=1;strokeColor=none;fillColor=none;align=center;verticalAlign=middle;whiteSpace=wrap;rounded=0;fontFamily=Times New Roman;fontSize=11;rotation=0;fontStyle=0" vertex="1" parent="1">
          <mxGeometry x="383.5" y="490" width="60" height="30" as="geometry" />
        </mxCell>
        <mxCell id="PnS1yGOj6jQM3zGKcHUd-31" value="$$(200 + 3)\times 2$$" style="text;html=1;strokeColor=none;fillColor=none;align=center;verticalAlign=middle;whiteSpace=wrap;rounded=0;fontFamily=Times New Roman;fontSize=11;rotation=0;fontStyle=0" vertex="1" parent="1">
          <mxGeometry x="378" y="185" width="60" height="30" as="geometry" />
        </mxCell>
        <mxCell id="PnS1yGOj6jQM3zGKcHUd-32" value="Reconstructed magnitudes" style="rounded=0;whiteSpace=wrap;html=1;fontFamily=Times New Roman;fontSize=13;" vertex="1" parent="1">
          <mxGeometry x="269" y="636" width="83" height="44" as="geometry" />
        </mxCell>
        <mxCell id="PnS1yGOj6jQM3zGKcHUd-33" value="$$(200+3)\times 64\times4$$" style="text;html=1;strokeColor=none;fillColor=none;align=center;verticalAlign=middle;whiteSpace=wrap;rounded=0;fontFamily=Times New Roman;fontSize=11;rotation=0;fontStyle=0" vertex="1" parent="1">
          <mxGeometry x="390" y="425" width="60" height="30" as="geometry" />
        </mxCell>
        <mxCell id="PnS1yGOj6jQM3zGKcHUd-34" value="Input" style="text;html=1;strokeColor=none;fillColor=none;align=center;verticalAlign=middle;whiteSpace=wrap;rounded=0;rotation=-90;fontFamily=Times New Roman;fontSize=13;fontStyle=1" vertex="1" parent="1">
          <mxGeometry x="113.13" y="185" width="60" height="30" as="geometry" />
        </mxCell>
        <mxCell id="PnS1yGOj6jQM3zGKcHUd-35" style="edgeStyle=orthogonalEdgeStyle;rounded=0;orthogonalLoop=1;jettySize=auto;html=1;exitX=0.5;exitY=1;exitDx=0;exitDy=0;entryX=0.5;entryY=0;entryDx=0;entryDy=0;" edge="1" parent="1" source="PnS1yGOj6jQM3zGKcHUd-36" target="PnS1yGOj6jQM3zGKcHUd-45">
          <mxGeometry relative="1" as="geometry" />
        </mxCell>
        <mxCell id="PnS1yGOj6jQM3zGKcHUd-36" value="CLS" style="rounded=1;whiteSpace=wrap;html=1;fontFamily=Times New Roman;strokeWidth=2;" vertex="1" parent="1">
          <mxGeometry x="210" y="561" width="35" height="20" as="geometry" />
        </mxCell>
        <mxCell id="PnS1yGOj6jQM3zGKcHUd-37" style="edgeStyle=orthogonalEdgeStyle;rounded=0;orthogonalLoop=1;jettySize=auto;html=1;exitX=0.5;exitY=1;exitDx=0;exitDy=0;entryX=0.5;entryY=0;entryDx=0;entryDy=0;" edge="1" parent="1" source="PnS1yGOj6jQM3zGKcHUd-38" target="PnS1yGOj6jQM3zGKcHUd-25">
          <mxGeometry relative="1" as="geometry" />
        </mxCell>
        <mxCell id="PnS1yGOj6jQM3zGKcHUd-38" value="Rest" style="rounded=1;whiteSpace=wrap;html=1;fontFamily=Times New Roman;strokeWidth=2;" vertex="1" parent="1">
          <mxGeometry x="262.01" y="560" width="95" height="20" as="geometry" />
        </mxCell>
        <mxCell id="PnS1yGOj6jQM3zGKcHUd-39" style="edgeStyle=orthogonalEdgeStyle;rounded=0;orthogonalLoop=1;jettySize=auto;html=1;exitX=0;exitY=0.5;exitDx=0;exitDy=0;" edge="1" parent="1" source="PnS1yGOj6jQM3zGKcHUd-41" target="PnS1yGOj6jQM3zGKcHUd-36">
          <mxGeometry relative="1" as="geometry" />
        </mxCell>
        <mxCell id="PnS1yGOj6jQM3zGKcHUd-40" style="edgeStyle=orthogonalEdgeStyle;rounded=0;orthogonalLoop=1;jettySize=auto;html=1;exitX=1;exitY=0.5;exitDx=0;exitDy=0;entryX=0.5;entryY=0;entryDx=0;entryDy=0;" edge="1" parent="1" source="PnS1yGOj6jQM3zGKcHUd-41" target="PnS1yGOj6jQM3zGKcHUd-38">
          <mxGeometry relative="1" as="geometry" />
        </mxCell>
        <mxCell id="PnS1yGOj6jQM3zGKcHUd-41" value="" style="shape=lineEllipse;perimeter=ellipsePerimeter;whiteSpace=wrap;html=1;backgroundOutline=1;" vertex="1" parent="1">
          <mxGeometry x="255.01" y="530" width="20" height="20" as="geometry" />
        </mxCell>
        <mxCell id="PnS1yGOj6jQM3zGKcHUd-42" value="$$(200+2)\times 256$$" style="text;html=1;strokeColor=none;fillColor=none;align=center;verticalAlign=middle;whiteSpace=wrap;rounded=0;fontFamily=Times New Roman;fontSize=11;rotation=0;fontStyle=0" vertex="1" parent="1">
          <mxGeometry x="324" y="534" width="60" height="30" as="geometry" />
        </mxCell>
        <mxCell id="PnS1yGOj6jQM3zGKcHUd-43" value="$$1\times 256$$" style="text;html=1;strokeColor=none;fillColor=none;align=center;verticalAlign=middle;whiteSpace=wrap;rounded=0;fontFamily=Times New Roman;fontSize=11;rotation=0;fontStyle=0" vertex="1" parent="1">
          <mxGeometry x="170" y="534" width="60" height="30" as="geometry" />
        </mxCell>
        <mxCell id="PnS1yGOj6jQM3zGKcHUd-44" style="edgeStyle=orthogonalEdgeStyle;rounded=0;orthogonalLoop=1;jettySize=auto;html=1;exitX=0.5;exitY=1;exitDx=0;exitDy=0;entryX=0.5;entryY=0;entryDx=0;entryDy=0;" edge="1" parent="1" source="PnS1yGOj6jQM3zGKcHUd-45" target="PnS1yGOj6jQM3zGKcHUd-46">
          <mxGeometry relative="1" as="geometry" />
        </mxCell>
        <mxCell id="PnS1yGOj6jQM3zGKcHUd-45" value="Feed Forward" style="rounded=1;whiteSpace=wrap;html=1;fontFamily=Times New Roman;" vertex="1" parent="1">
          <mxGeometry x="190" y="600" width="75" height="20" as="geometry" />
        </mxCell>
        <mxCell id="PnS1yGOj6jQM3zGKcHUd-46" value="&lt;div&gt;Predicted &lt;br&gt;&lt;/div&gt;&lt;div&gt;Class&lt;/div&gt;" style="rounded=0;whiteSpace=wrap;html=1;fontFamily=Times New Roman;fontSize=13;" vertex="1" parent="1">
          <mxGeometry x="193.49" y="636" width="68.01" height="44" as="geometry" />
        </mxCell>
        <mxCell id="PnS1yGOj6jQM3zGKcHUd-49" value="" style="edgeStyle=orthogonalEdgeStyle;rounded=0;orthogonalLoop=1;jettySize=auto;html=1;exitX=0.5;exitY=1;exitDx=0;exitDy=0;entryX=0.5;entryY=0;entryDx=0;entryDy=0;fontFamily=Times New Roman;endArrow=none;startArrow=none;" edge="1" parent="1" source="PnS1yGOj6jQM3zGKcHUd-51">
          <mxGeometry relative="1" as="geometry">
            <mxPoint x="265" y="445" as="sourcePoint" />
            <mxPoint x="265.01" y="455" as="targetPoint" />
          </mxGeometry>
        </mxCell>
        <mxCell id="PnS1yGOj6jQM3zGKcHUd-51" value="" style="shape=orEllipse;perimeter=ellipsePerimeter;whiteSpace=wrap;html=1;backgroundOutline=1;" vertex="1" parent="1">
          <mxGeometry x="255.01" y="455" width="20" height="20" as="geometry" />
        </mxCell>
        <mxCell id="PnS1yGOj6jQM3zGKcHUd-52" value="" style="edgeStyle=orthogonalEdgeStyle;rounded=0;orthogonalLoop=1;jettySize=auto;html=1;exitX=0.5;exitY=1;exitDx=0;exitDy=0;entryX=0.5;entryY=0;entryDx=0;entryDy=0;fontFamily=Times New Roman;endArrow=none;" edge="1" parent="1" source="PnS1yGOj6jQM3zGKcHUd-21" target="PnS1yGOj6jQM3zGKcHUd-51">
          <mxGeometry relative="1" as="geometry">
            <mxPoint x="265" y="445" as="sourcePoint" />
            <mxPoint x="265.01" y="455" as="targetPoint" />
          </mxGeometry>
        </mxCell>
      </root>
    </mxGraphModel>
  </diagram>
</mxfile>
